<svg xmlns:rdf="http://www.w3.org/1999/02/22-rdf-syntax-ns#" xmlns="http://www.w3.org/2000/svg" xmlns:cc="http://creativecommons.org/ns#" xmlns:dc="http://purl.org/dc/elements/1.1/" viewBox="5.0 -10.0 100.0 135.0" version="1.1" height="100px" width="100px">
 <path style="color-rendering:auto;text-decoration-color:#000000;color:#000000;isolation:auto;mix-blend-mode:normal;shape-rendering:auto;solid-color:#000000;block-progression:tb;text-decoration-line:none;text-decoration-style:solid;image-rendering:auto;white-space:normal;text-indent:0;text-transform:none" d="m29.227 14.875c-2.477 0-4.451 0.141-5.938 0.437-1.486 0.298-2.741 0.808-3.781 1.5-1.362 0.868-2.318 2.076-2.875 3.626-0.557 1.548-0.844 4.208-0.844 8v9.062c0 3.79-0.669 6.445-2.031 7.969-1.362 1.523-3.712 2.281-7.0314 2.281-0.1735 0-0.4409-0.006-0.8125-0.031-0.3715-0.025-0.6768-0.031-0.875-0.031v4.718c0.1982 0 0.5035-0.006 0.875-0.031 0.3716-0.025 0.639-0.061 0.8125-0.063 3.3194 0.002 5.6694 0.771 7.0314 2.282s2.031 4.141 2.031 7.906v9.062c0 3.692 0.287 6.353 0.844 7.938s1.513 2.796 2.875 3.688c1.04 0.692 2.314 1.202 3.812 1.5 1.499 0.296 3.454 0.437 5.907 0.437h1.312v-4.625h-1.437c-3.122 0-5.235-0.598-6.313-1.75-1.077-1.152-1.625-3.559-1.625-7.25v-9c0-4.112-0.516-7.028-1.594-8.75-1.077-1.722-3-2.944-5.75-3.688 2.75-0.766 4.673-2.028 5.75-3.75 1.078-1.72 1.594-4.636 1.594-8.75v-8.968c0-3.716 0.56-6.18 1.625-7.344s3.097-1.75 6.094-1.75c0.173 0 0.44 0.038 0.812 0.062 0.371 0.026 0.646 0.032 0.844 0.032v-4.719h-1.312zm40.171 0v4.625h1.469c3.096 0 5.191 0.605 6.281 1.781 1.09 1.177 1.625 3.622 1.625 7.313v8.968c0 4.114 0.547 7.03 1.625 8.75 1.078 1.722 2.969 2.984 5.719 3.75-2.75 0.744-4.641 1.966-5.719 3.688s-1.625 4.638-1.625 8.75v8.906c0 3.741-0.547 6.23-1.625 7.406-1.078 1.178-3.089 1.75-6.062 1.75-0.173 0-0.441-0.006-0.813-0.031s-0.677-0.031-0.875-0.031v4.625h1.532c2.527 0 4.519-0.121 5.968-0.406s2.659-0.761 3.625-1.407c1.338-0.89 2.268-2.114 2.813-3.687s0.812-4.271 0.812-8.063v-9c0-3.764 0.688-6.401 2.063-7.937 1.374-1.536 3.75-2.311 7.094-2.313 0.174 0.002 0.44 0.038 0.812 0.063 0.371 0.025 0.645 0.031 0.844 0.031v-4.718c-0.199 0-0.473 0.006-0.844 0.031-0.372 0.025-0.638 0.031-0.812 0.031-3.344 0-5.72-0.778-7.094-2.312-1.375-1.536-2.063-4.173-2.063-7.938v-9.062c0-3.766-0.267-6.44-0.812-8-0.545-1.562-1.475-2.758-2.813-3.626-1.04-0.668-2.332-1.159-3.843-1.468-1.511-0.31-3.492-0.469-5.969-0.469h-1.313zm-30.818 5.773c-2.686 0-4.892 2.207-4.892 4.893 0 2.234 1.528 4.13 3.587 4.707v39.504c-2.059 0.577-3.587 2.473-3.587 4.707 0 2.686 2.206 4.893 4.892 4.893s4.891-2.207 4.891-4.893c0-2.215-1.503-4.099-3.535-4.693 0.232-3.304 1.332-4.679 2.91-5.491 1.748-0.899 4.433-0.974 7.285-0.974s5.869 0.078 8.41-1.229c2.26-1.162 3.834-3.554 4.121-7.347 2.091-0.556 3.65-2.468 3.65-4.725 0-2.234-1.528-4.13-3.587-4.707v-2.816c2.059-0.577 3.587-2.473 3.587-4.707 0-2.235-1.528-4.131-3.587-4.708v-2.814c2.059-0.577 3.587-2.473 3.587-4.707 0-2.686-2.206-4.893-4.892-4.893-2.231 0-4.123 1.525-4.703 3.579l-7.279 0.019v-1.529l-2.446 1.41-2.445 1.414 2.445 1.412 2.446 1.412v-1.51l7.273-0.021c0.457 1.647 1.76 2.953 3.406 3.414v2.814c-2.059 0.577-3.588 2.473-3.588 4.708 0 2.234 1.529 4.13 3.588 4.707v2.816c-2.059 0.577-3.588 2.473-3.588 4.707 0 2.216 1.503 4.102 3.537 4.695-0.206 3.046-1.237 4.295-2.718 5.057-1.694 0.871-4.362 0.939-7.217 0.939-2.856 0-5.901-0.064-8.479 1.262-0.646 0.333-1.24 0.762-1.769 1.293v-32.998c2.059-0.577 3.588-2.473 3.588-4.707 0-2.686-2.205-4.893-4.891-4.893zm0 2.61c1.276 0 2.281 1.007 2.281 2.283s-1.005 2.281-2.281 2.281-2.283-1.005-2.283-2.281 1.007-2.283 2.283-2.283zm22.84 0c1.276 0 2.283 1.007 2.283 2.283s-1.007 2.281-2.283 2.281-2.281-1.005-2.281-2.281 1.005-2.283 2.281-2.283zm0 12.228c1.276 0 2.283 1.007 2.283 2.284 0 1.276-1.007 2.283-2.283 2.283s-2.281-1.007-2.281-2.283c0-1.277 1.005-2.284 2.281-2.284zm0 12.231c1.276 0 2.283 1.007 2.283 2.283s-1.007 2.283-2.283 2.283-2.281-1.007-2.281-2.283 1.005-2.283 2.281-2.283zm-22.84 24.461c1.276 0 2.281 1.005 2.281 2.281s-1.005 2.283-2.281 2.283-2.283-1.007-2.283-2.283 1.007-2.281 2.283-2.281z"/>
</svg>